<svg width="19" height="23" viewBox="0 0 19 23" fill="none" xmlns="http://www.w3.org/2000/svg">
<path d="M11.8587 18.887C12.7716 18.887 13.2538 19.9676 12.6449 20.6473C12.249 21.0895 11.7643 21.4433 11.2224 21.6855C10.6805 21.9277 10.0936 22.053 9.50002 22.053C8.90645 22.053 8.31956 21.9277 7.77766 21.6855C7.23576 21.4433 6.75103 21.0895 6.35512 20.6473C5.77258 19.9972 6.18838 18.9809 7.0242 18.8944L7.14029 18.888L11.8587 18.887ZM9.50002 0.946289C10.9332 0.946289 12.1447 1.89926 12.5341 3.20576L12.5827 3.38622L12.5911 3.4316C13.7546 4.08772 14.7461 5.01024 15.4843 6.12355C16.2225 7.23685 16.6863 8.50925 16.8378 9.83643L16.8673 10.1393L16.8874 10.4443V13.5375L16.9095 13.681C17.054 14.4586 17.4843 15.154 18.1158 15.6302L18.292 15.7537L18.463 15.8582C19.3706 16.3721 19.054 17.7219 18.0651 17.8253L17.9427 17.8316H1.05734C-0.0275438 17.8316 -0.406409 16.3922 0.53706 15.8582C0.939174 15.6306 1.28661 15.3178 1.55497 14.9417C1.82334 14.5656 2.00613 14.1353 2.09051 13.681L2.11267 13.5301L2.11373 10.3958C2.17808 9.01736 2.5793 7.67575 3.28229 6.48835C3.98527 5.30094 4.96859 4.30395 6.14616 3.58463L6.40789 3.43055L6.41844 3.38517C6.56731 2.7539 6.90646 2.18358 7.39003 1.75135C7.8736 1.31912 8.47825 1.04583 9.12221 0.968451L9.31428 0.95051L9.50002 0.946289Z" fill="#2C2C2C"/>
</svg>
