<svg width="80" height="89" viewBox="0 0 80 89" fill="none" xmlns="http://www.w3.org/2000/svg">
<path d="M17.6973 22.2305C24.1197 22.2305 29.3525 27.4557 29.3525 33.9336C29.3525 40.4116 24.1197 45.6367 17.6973 45.6367C11.2749 45.6366 6.04297 40.4115 6.04297 33.9336C6.04303 27.4557 11.275 22.2306 17.6973 22.2305Z" stroke="#EB008B" stroke-width="10.5855"/>
<path d="M62.2656 59.8223C68.688 59.8223 73.9208 65.0475 73.9209 71.5254C73.9209 78.0034 68.6881 83.2285 62.2656 83.2285C55.8433 83.2284 50.6113 78.0033 50.6113 71.5254C50.6114 65.0475 55.8433 59.8224 62.2656 59.8223Z" stroke="#1F7E90" stroke-width="10.5855"/>
<rect x="0.75" y="54.3379" width="8.46837" height="33.8735" fill="#004A56"/>
<rect x="26.1543" y="54.3379" width="8.46837" height="33.8735" fill="#004A56"/>
<rect x="0.75" y="54.3379" width="33.8492" height="8.76039" fill="#004A56"/>
<rect x="45.209" width="33.8735" height="7.76267" fill="#8EA005"/>
<rect x="45.209" width="7.76267" height="33.8735" fill="#8EA005"/>
<rect x="45.209" y="13.4082" width="33.8735" height="7.76267" fill="#8EA005"/>
<rect x="45.209" y="26.1094" width="33.8492" height="7.66534" fill="#8EA005"/>
<rect x="45.3633" y="44.3516" width="33.8492" height="7.44633" fill="#DDB20A"/>
<rect x="58.6855" y="36.3535" width="8.08014" height="13.9071" fill="#DDB20A"/>
</svg>
