<svg width="23" height="19" viewBox="0 0 23 19" fill="none" xmlns="http://www.w3.org/2000/svg">
<path d="M2.74072 0.31543C2.14696 0.31543 1.57752 0.551299 1.15767 0.97115C0.737823 1.391 0.501953 1.96044 0.501953 2.5542V7.03174C1.09571 7.03174 1.66515 7.26761 2.085 7.68746C2.50485 8.10731 2.74072 8.67675 2.74072 9.27051C2.74072 9.86427 2.50485 10.4337 2.085 10.8536C1.66515 11.2734 1.09571 11.5093 0.501953 11.5093V15.9868C0.501953 16.5806 0.737823 17.15 1.15767 17.5699C1.57752 17.9897 2.14696 18.2256 2.74072 18.2256H20.6509C21.2446 18.2256 21.8141 17.9897 22.2339 17.5699C22.6538 17.15 22.8897 16.5806 22.8897 15.9868V11.5093C22.2959 11.5093 21.7265 11.2734 21.3066 10.8536C20.8868 10.4337 20.6509 9.86427 20.6509 9.27051C20.6509 8.67675 20.8868 8.10731 21.3066 7.68746C21.7265 7.26761 22.2959 7.03174 22.8897 7.03174V2.5542C22.8897 1.96044 22.6538 1.391 22.2339 0.97115C21.8141 0.551299 21.2446 0.31543 20.6509 0.31543H2.74072ZM15.6137 3.67359L17.2927 5.35266L7.77796 14.8674L6.09888 13.1884L15.6137 3.67359ZM8.12497 3.71836C9.22196 3.71836 10.1063 4.60268 10.1063 5.69967C10.1063 6.22515 9.89753 6.7291 9.52597 7.10067C9.1544 7.47224 8.65044 7.68098 8.12497 7.68098C7.02797 7.68098 6.14365 6.79667 6.14365 5.69967C6.14365 5.1742 6.3524 4.67024 6.72397 4.29867C7.09554 3.92711 7.59949 3.71836 8.12497 3.71836ZM15.2666 10.86C16.3636 10.86 17.248 11.7444 17.248 12.8413C17.248 13.3668 17.0392 13.8708 16.6676 14.2423C16.2961 14.6139 15.7921 14.8227 15.2666 14.8227C14.1696 14.8227 13.2853 13.9383 13.2853 12.8413C13.2853 12.3159 13.4941 11.8119 13.8656 11.4404C14.2372 11.0688 14.7412 10.86 15.2666 10.86Z" fill="white"/>
</svg>
