<svg width="21" height="20" viewBox="0 0 21 20" fill="none" xmlns="http://www.w3.org/2000/svg">
<path d="M10.4014 11.25C13.5068 11.25 16.0264 8.73047 16.0264 5.625C16.0264 2.51953 13.5068 0 10.4014 0C7.2959 0 4.77637 2.51953 4.77637 5.625C4.77637 8.73047 7.2959 11.25 10.4014 11.25ZM15.4014 12.5H13.249C12.3818 12.8984 11.417 13.125 10.4014 13.125C9.38574 13.125 8.4248 12.8984 7.55371 12.5H5.40137C2.63965 12.5 0.401367 14.7383 0.401367 17.5V18.125C0.401367 19.1602 1.24121 20 2.27637 20H18.5264C19.5615 20 20.4014 19.1602 20.4014 18.125V17.5C20.4014 14.7383 18.1631 12.5 15.4014 12.5Z" fill="white"/>
</svg>
