<svg width="32" height="36" viewBox="0 0 32 36" fill="none" xmlns="http://www.w3.org/2000/svg">
<path d="M29.4231 0H25.5C24.9798 0 24.4808 0.206661 24.113 0.574521C23.7451 0.942381 23.5385 1.44131 23.5385 1.96154V35.292H31.3846V1.96154C31.3846 1.44131 31.178 0.942381 30.8101 0.574521C30.4422 0.206661 29.9433 0 29.4231 0ZM17.6538 11.7692H13.7308C13.2105 11.7692 12.7116 11.9759 12.3438 12.3438C11.9759 12.7116 11.7692 13.2105 11.7692 13.7308V35.292H19.6154V13.7308C19.6154 13.2105 19.4087 12.7116 19.0409 12.3438C18.673 11.9759 18.1741 11.7692 17.6538 11.7692ZM5.88462 23.5385H1.96154C1.44131 23.5385 0.942381 23.7451 0.574521 24.113C0.206661 24.4808 0 24.9798 0 25.5V35.292H7.84615V25.5C7.84615 24.9798 7.63949 24.4808 7.27163 24.113C6.90377 23.7451 6.40485 23.5385 5.88462 23.5385Z" fill="#2C2C2C"/>
</svg>
