<svg width="23" height="25" viewBox="0 0 23 25" fill="none" xmlns="http://www.w3.org/2000/svg">
<path d="M14.3553 21.1691C15.4603 21.1691 16.0441 22.4373 15.307 23.2348C14.8277 23.7538 14.241 24.169 13.585 24.4532C12.929 24.7375 12.2186 24.8844 11.5 24.8845C10.7815 24.8844 10.071 24.7375 9.41506 24.4532C8.75908 24.169 8.1723 23.7538 7.69304 23.2348C6.98786 22.4719 7.49119 21.2793 8.50298 21.1777L8.64351 21.1703L14.3553 21.1691ZM11.5 0.115234C13.2349 0.115234 14.7015 1.23356 15.1729 2.76678L15.2316 2.97856L15.2418 3.03181C16.6504 3.80178 17.8506 4.88438 18.7442 6.19087C19.6377 7.49737 20.1992 8.99055 20.3826 10.548L20.4183 10.9035L20.4426 11.2614V14.8913L20.4694 15.0597C20.6443 15.9723 21.1652 16.7883 21.9296 17.3472L22.143 17.4921L22.3499 17.6147C23.4486 18.2178 23.0653 19.8018 21.8683 19.9232L21.7201 19.9306H1.27994C-0.0333425 19.9306 -0.491969 18.2414 0.650126 17.6147C1.13689 17.3476 1.55747 16.9806 1.88233 16.5392C2.2072 16.0978 2.42847 15.5928 2.53062 15.0597L2.55745 14.8826L2.55873 11.2044C2.63662 9.58684 3.12231 8.01242 3.97329 6.61897C4.82428 5.22553 6.0146 4.05553 7.44009 3.21139L7.75692 3.03057L7.76969 2.97732C7.9499 2.23651 8.36045 1.56722 8.94583 1.05999C9.5312 0.552755 10.2632 0.232047 11.0427 0.141242L11.2752 0.120188L11.5 0.115234Z" fill="white"/>
</svg>
