<svg width="24" height="24" viewBox="0 0 24 24" fill="none" xmlns="http://www.w3.org/2000/svg">
<path d="M5 6.50004V17.5H1V6.50004H5ZM7 18.21L15 22.71V1.29004L7 5.79004V18.21ZM21.581 7.78004L20.979 6.98104L19.383 8.18704L19.985 8.98504C20.6409 9.85342 20.9957 10.9121 20.9953 12.0004C20.9949 13.0887 20.6395 14.1471 19.983 15.015L19.38 15.812L20.975 17.018L21.578 16.221C22.4972 15.0059 22.9948 13.5241 22.9953 12.0005C22.9959 10.477 22.4993 8.99479 21.581 7.77904" fill="white"/>
<path d="M18.7898 9.88882L18.1868 9.09082L16.5908 10.2958L17.1938 11.0938C17.3907 11.3543 17.4972 11.6718 17.4972 11.9983C17.4972 12.3248 17.3907 12.6424 17.1938 12.9028L16.5898 13.6998L18.1848 14.9068L18.7878 14.1088C19.2473 13.5014 19.496 12.7607 19.4964 11.9992C19.4967 11.2376 19.2487 10.4967 18.7898 9.88882Z" fill="white"/>
</svg>
