<svg width="24" height="25" viewBox="0 0 24 25" fill="none" xmlns="http://www.w3.org/2000/svg">
<path d="M9.55018 15.735L18.0252 7.25996C18.2252 7.05996 18.4585 6.95996 18.7252 6.95996C18.9918 6.95996 19.2252 7.05996 19.4252 7.25996C19.6252 7.45996 19.7252 7.69763 19.7252 7.97296C19.7252 8.24829 19.6252 8.48563 19.4252 8.68496L10.2502 17.885C10.0502 18.085 9.81685 18.185 9.55018 18.185C9.28351 18.185 9.05018 18.085 8.85018 17.885L4.55018 13.585C4.35018 13.385 4.25418 13.1476 4.26218 12.873C4.27018 12.5983 4.37451 12.3606 4.57518 12.16C4.77585 11.9593 5.01351 11.8593 5.28818 11.86C5.56285 11.8606 5.80018 11.9606 6.00018 12.16L9.55018 15.735Z" fill="#FE5555"/>
</svg>
