<svg width="22" height="22" viewBox="0 0 22 22" fill="none" xmlns="http://www.w3.org/2000/svg">
<path fill-rule="evenodd" clip-rule="evenodd" d="M10.8275 2.98065C10.0159 2.85506 9.19702 2.78262 8.37603 2.76379C8.64797 2.14189 9.07284 1.59891 9.6111 1.18539C10.1494 0.771881 10.7835 0.501282 11.4545 0.39879C12.2245 0.28879 13.0322 0.199219 13.8666 0.199219C14.701 0.199219 15.5103 0.287219 16.2787 0.39879C18.144 0.669076 19.5505 2.24365 19.695 4.09165C19.8113 5.57822 19.9229 7.13708 19.9229 8.73679C19.9229 10.3365 19.8113 11.8954 19.695 13.3804C19.5505 15.2299 18.144 16.8061 16.2787 17.0732C16.1845 17.0889 16.0886 17.1026 15.9912 17.1141C16.0807 15.8931 16.1546 14.5951 16.1546 13.2625C16.1546 11.5795 16.0367 9.95151 15.9189 8.46493C15.7067 5.73851 13.6387 3.38765 10.8275 2.98065ZM2.3056 8.61893C2.18931 10.1039 2.07617 11.6628 2.07617 13.2625C2.07617 14.8622 2.18931 16.4211 2.3056 17.9061C2.45017 19.7556 3.8566 21.3302 5.72032 21.5989C6.51868 21.7223 7.3247 21.7895 8.13246 21.8001C8.94071 21.7901 9.74726 21.7234 10.5462 21.6005C12.4099 21.3302 13.8163 19.7556 13.9609 17.9076C14.0772 16.4211 14.1903 14.8622 14.1903 13.2625C14.1903 11.6628 14.0772 10.1039 13.9609 8.61893C13.8163 6.76936 12.4099 5.19322 10.5462 4.92608C9.74755 4.80054 8.94084 4.73332 8.13246 4.72493C7.2996 4.72493 6.49032 4.81293 5.72032 4.9245C3.8566 5.19479 2.45017 6.77093 2.3056 8.61893Z" fill="white"/>
</svg>
