<svg width="20" height="21" viewBox="0 0 20 21" fill="none" xmlns="http://www.w3.org/2000/svg">
<path d="M1.15631 1.72396C0.967765 2.09896 0.875056 2.56354 0.68964 3.49062L0.0667232 6.60521C-0.0215591 7.02987 -0.0222429 7.46808 0.0647138 7.89302C0.151671 8.31795 0.324438 8.72067 0.57244 9.07651C0.820441 9.43236 1.13846 9.73385 1.50702 9.96252C1.87559 10.1912 2.28695 10.3422 2.71591 10.4064C3.14488 10.4706 3.58243 10.4465 4.00178 10.3357C4.42113 10.2249 4.81345 10.0297 5.15473 9.762C5.49601 9.49431 5.77907 9.15978 5.98657 8.77889C6.19408 8.39801 6.32166 7.97878 6.36151 7.54687L6.43443 6.82812C6.39495 7.28525 6.45127 7.74558 6.59977 8.17971C6.74827 8.61383 6.9857 9.01221 7.29689 9.34938C7.60807 9.68655 7.98617 9.9551 8.40702 10.1379C8.82787 10.3206 9.28222 10.4136 9.74103 10.4109C10.1998 10.4081 10.653 10.3097 11.0717 10.1218C11.4903 9.93399 11.8651 9.6609 12.1722 9.32001C12.4793 8.97911 12.7119 8.5779 12.8552 8.14202C12.9984 7.70613 13.0492 7.24516 13.0042 6.78854L13.0803 7.54687C13.1201 7.97878 13.2477 8.39801 13.4552 8.77889C13.6627 9.15978 13.9458 9.49431 14.287 9.762C14.6283 10.0297 15.0206 10.2249 15.44 10.3357C15.8593 10.4465 16.2969 10.4706 16.7259 10.4064C17.1548 10.3422 17.5662 10.1912 17.9348 9.96252C18.3033 9.73385 18.6213 9.43236 18.8693 9.07651C19.1173 8.72067 19.2901 8.31795 19.3771 7.89302C19.464 7.46808 19.4633 7.02987 19.3751 6.60521L18.7521 3.49062C18.5667 2.56354 18.474 2.1 18.2855 1.72396C18.089 1.33233 17.8124 0.986392 17.4736 0.708594C17.1348 0.430797 16.7413 0.22735 16.3188 0.111458C15.9126 1.11759e-07 15.4396 0 14.4938 0H4.94797C4.00214 0 3.52922 1.11759e-07 3.12297 0.111458C2.70044 0.22735 2.307 0.430797 1.96818 0.708594C1.62937 0.986392 1.35276 1.33233 1.15631 1.72396ZM16.2511 11.9792C17.065 11.9812 17.8656 11.7727 18.5751 11.374V12.5C18.5751 16.4281 18.5751 18.3927 17.3542 19.6125C16.3719 20.5958 14.9084 20.7865 12.3251 20.824V17.1875C12.3251 16.2135 12.3251 15.7271 12.1157 15.3646C11.9785 15.1271 11.7813 14.9298 11.5438 14.7927C11.1813 14.5833 10.6948 14.5833 9.72089 14.5833C8.74693 14.5833 8.26047 14.5833 7.89797 14.7927C7.66046 14.9298 7.46323 15.1271 7.3261 15.3646C7.11672 15.7271 7.11672 16.2135 7.11672 17.1875V20.824C4.53339 20.7865 3.06985 20.5948 2.08756 19.6125C0.866723 18.3927 0.866723 16.4281 0.866723 12.5V11.374C1.57653 11.7729 2.37749 11.9814 3.19172 11.9792C4.39551 11.9799 5.55449 11.5226 6.43339 10.7C7.32893 11.5253 8.50303 11.9822 9.72089 11.9792C10.9387 11.9822 12.1128 11.5253 13.0084 10.7C13.8873 11.5226 15.0473 11.9799 16.2511 11.9792Z" fill="#2C2C2C"/>
</svg>
