<svg width="24" height="24" viewBox="0 0 24 24" fill="none" xmlns="http://www.w3.org/2000/svg">
<path d="M10.8157 14.3167V23.3184H6.31471C5.4194 23.3184 4.56077 22.9627 3.9277 22.3297C3.29463 21.6966 2.93897 20.838 2.93897 19.9428V15.4419C2.93897 15.1435 3.05752 14.8573 3.26855 14.6463C3.47957 14.4352 3.76578 14.3167 4.06421 14.3167H10.8157ZM19.8177 14.3167C20.1161 14.3167 20.4023 14.4352 20.6133 14.6463C20.8243 14.8573 20.9429 15.1435 20.9429 15.4419V19.9428C20.9429 20.838 20.5872 21.6966 19.9542 22.3297C19.3211 22.9627 18.4625 23.3184 17.5672 23.3184H13.0662V14.3167H19.8177ZM17.0045 0.814137C17.669 0.814 18.3227 0.981981 18.9048 1.30244C19.4869 1.62291 19.9784 2.08543 20.3337 2.64696C20.6889 3.20849 20.8963 3.85076 20.9365 4.514C20.9767 5.17723 20.8485 5.83986 20.5637 6.4402H20.9429C21.5398 6.4402 22.1122 6.6773 22.5342 7.09934C22.9563 7.52137 23.1934 8.09378 23.1934 8.69063V9.81584C23.1934 10.4127 22.9563 10.9851 22.5342 11.4071C22.1122 11.8292 21.5398 12.0663 20.9429 12.0663H13.0662V6.4402H10.8157V12.0663H2.93897C2.3421 12.0663 1.76968 11.8292 1.34763 11.4071C0.925581 10.9851 0.688477 10.4127 0.688477 9.81584V8.69063C0.688477 8.09378 0.925581 7.52137 1.34763 7.09934C1.76968 6.6773 2.3421 6.4402 2.93897 6.4402H3.31818C3.06824 5.91265 2.93871 5.33614 2.93897 4.75238C2.93897 2.57735 4.70223 0.814137 6.8582 0.814137C8.83301 0.780381 10.585 2.04287 11.7879 4.11551L11.9409 4.38894C13.1033 2.23528 14.8216 0.885025 16.7694 0.816387L17.0045 0.814137ZM6.87733 3.06456C6.42968 3.06456 6.00036 3.24239 5.68382 3.55891C5.36729 3.87544 5.18946 4.30474 5.18946 4.75238C5.18946 5.20002 5.36729 5.62932 5.68382 5.94585C6.00036 6.26238 6.42968 6.4402 6.87733 6.4402H10.414C9.58017 4.29667 8.22087 3.04206 6.87733 3.06456ZM16.9854 3.06456C15.6576 3.04206 14.3017 4.2978 13.4679 6.4402H17.0045C17.4522 6.43766 17.8805 6.25741 18.1952 5.93909C18.51 5.62077 18.6854 5.19046 18.6828 4.74282C18.6803 4.29518 18.5 3.86688 18.1817 3.55215C17.8634 3.23742 17.4331 3.06203 16.9854 3.06456Z" fill="white"/>
</svg>
