<svg width="20" height="24" viewBox="0 0 20 24" fill="none" xmlns="http://www.w3.org/2000/svg">
<path fill-rule="evenodd" clip-rule="evenodd" d="M9.80717 3.09035C8.8977 2.95082 7.98001 2.87033 7.05996 2.84941C7.36471 2.15844 7.84085 1.55515 8.44405 1.09571C9.04724 0.636266 9.75789 0.335613 10.5098 0.221737C11.3727 0.0995199 12.2779 0 13.213 0C14.1481 0 15.055 0.0977739 15.9162 0.221737C18.0065 0.522043 19.5826 2.2715 19.7447 4.32475C19.875 5.97643 20 7.70842 20 9.48581C20 11.2632 19.875 12.9952 19.7447 14.6451C19.5826 16.7001 18.0065 18.4513 15.9162 18.7481C15.8105 18.7656 15.7031 18.7807 15.5939 18.7935C15.6943 17.4369 15.7771 15.9948 15.7771 14.5142C15.7771 12.6443 15.645 10.8354 15.5129 9.18376C15.2752 6.15452 12.9576 3.54256 9.80717 3.09035ZM0.25711 9.35487C0.126794 11.0048 0 12.7368 0 14.5142C0 16.2916 0.126794 18.0236 0.25711 19.6735C0.419125 21.7285 1.99525 23.478 4.08383 23.7765C4.97851 23.9135 5.88178 23.9882 6.787 24C7.69277 23.9889 8.59663 23.9148 9.49194 23.7783C11.5805 23.478 13.1566 21.7285 13.3187 19.6753C13.449 18.0236 13.5758 16.2916 13.5758 14.5142C13.5758 12.7368 13.449 11.0048 13.3187 9.35487C13.1566 7.29987 11.5805 5.54867 9.49194 5.25185C8.59696 5.11238 7.69293 5.03769 6.787 5.02837C5.85366 5.02837 4.94673 5.12615 4.08383 5.25011C1.99525 5.55041 0.419125 7.30162 0.25711 9.35487Z" fill="#2C2C2C"/>
</svg>
