<svg width="23" height="23" viewBox="0 0 23 23" fill="none" xmlns="http://www.w3.org/2000/svg">
<path d="M21.7342 1.45801C21.5641 1.41755 21.3851 1.43939 21.2297 1.51955L20.1251 2.07119L19.011 1.51416C18.9112 1.46426 18.8012 1.43829 18.6896 1.43829C18.578 1.43829 18.468 1.46426 18.3682 1.51416L17.2402 2.07164L16.127 1.51416C16.0269 1.4639 15.9165 1.43772 15.8045 1.43772C15.6925 1.43772 15.582 1.4639 15.4819 1.51416L14.3751 2.06984L13.2767 1.51551C13.1769 1.4649 13.0666 1.4383 12.9547 1.43784C12.8428 1.43737 12.7323 1.46304 12.6321 1.51281L11.5001 2.07209L10.386 1.51371C10.286 1.46384 10.1758 1.43788 10.0641 1.43788C9.95242 1.43788 9.84223 1.46384 9.74227 1.51371L8.62506 2.07119L7.5092 1.51371C7.36535 1.4416 7.20146 1.41985 7.04377 1.45194C6.88609 1.48403 6.74374 1.5681 6.63951 1.6907C6.52717 1.8246 6.4666 1.99435 6.46881 2.16912V12.9378L6.47105 12.94H15.0938C15.4751 12.94 15.8407 13.0915 16.1103 13.3611C16.3799 13.6307 16.5313 13.9963 16.5313 14.3775V19.0472C16.5313 20.4366 18.0169 21.5628 19.4063 21.5628H19.9454C20.5649 21.5628 21.1591 21.3167 21.5971 20.8786C22.0352 20.4405 22.2813 19.8464 22.2813 19.2269V2.15654C22.2814 1.99567 22.2276 1.83941 22.1284 1.71276C22.0292 1.58612 21.8904 1.49641 21.7342 1.45801ZM18.6876 10.7815H12.96C12.5719 10.7815 12.2368 10.4833 12.2197 10.0951C12.2153 9.99814 12.2307 9.90126 12.2648 9.81035C12.2989 9.71944 12.351 9.63638 12.4181 9.56619C12.4852 9.49599 12.5658 9.44012 12.6551 9.40194C12.7444 9.36376 12.8405 9.34406 12.9376 9.34404H18.6651C19.0532 9.34404 19.3883 9.64232 19.4054 10.0304C19.4098 10.1274 19.3945 10.2243 19.3603 10.3152C19.3262 10.4061 19.2741 10.4892 19.207 10.5594C19.1399 10.6296 19.0593 10.6855 18.97 10.7236C18.8807 10.7618 18.7847 10.7815 18.6876 10.7815ZM18.6876 7.18779H10.085C9.69689 7.18779 9.36178 6.88951 9.34471 6.50138C9.34034 6.40439 9.35567 6.30751 9.38977 6.2166C9.42387 6.12569 9.47604 6.04263 9.54313 5.97244C9.61021 5.90224 9.69083 5.84637 9.7801 5.80819C9.86938 5.77001 9.96546 5.75031 10.0626 5.75029H18.6651C19.0532 5.75029 19.3883 6.04857 19.4054 6.4367C19.4098 6.53369 19.3945 6.63057 19.3603 6.72148C19.3262 6.81239 19.2741 6.89545 19.207 6.96565C19.1399 7.03584 19.0593 7.09171 18.97 7.12989C18.8807 7.16807 18.7847 7.18777 18.6876 7.18779Z" fill="#2C2C2C"/>
<path d="M15.0938 19.0469V15.0938C15.0938 14.9031 15.018 14.7203 14.8832 14.5855C14.7484 14.4507 14.5656 14.375 14.375 14.375H2.15625C1.77498 14.3762 1.40969 14.5283 1.1403 14.7981C0.870911 15.068 0.719342 15.4335 0.71875 15.8147C0.71875 18.0855 0.978398 19.0298 1.36832 19.7486C2.03002 20.9691 3.22809 21.5625 5.03125 21.5625H16.0677C16.1031 21.5625 16.1378 21.5521 16.1673 21.5324C16.1968 21.5128 16.2199 21.4849 16.2336 21.4522C16.2472 21.4195 16.251 21.3835 16.2442 21.3487C16.2375 21.3138 16.2206 21.2818 16.1957 21.2566C15.7707 20.8303 15.0938 20.2598 15.0938 19.0469Z" fill="#2C2C2C"/>
</svg>
