<svg width="23" height="23" viewBox="0 0 23 23" fill="none" xmlns="http://www.w3.org/2000/svg">
<path fill-rule="evenodd" clip-rule="evenodd" d="M0.470065 0.88193H9.4013C9.66092 0.88193 9.87136 1.09237 9.87136 1.35199V10.2832C9.87136 10.5429 9.66092 10.7533 9.4013 10.7533H0.470065C0.210442 10.7533 0 10.5429 0 10.2832V1.35199C0 1.09237 0.210442 0.88193 0.470065 0.88193ZM17.0491 0.13767L22.3672 5.45587C22.5508 5.63943 22.5508 5.93704 22.3672 6.12063L17.0491 11.4388C16.8655 11.6224 16.5679 11.6224 16.3843 11.4388L11.0661 6.1206C10.8826 5.93704 10.8826 5.63943 11.0661 5.45584L16.3843 0.13767C16.5679 -0.0458901 16.8655 -0.0458901 17.0491 0.13767ZM0.470065 12.6336H9.4013C9.66092 12.6336 9.87136 12.844 9.87136 13.1036V22.0349C9.87136 22.2945 9.66092 22.5049 9.4013 22.5049H0.470065C0.210442 22.5049 0 22.2945 0 22.0349V13.1036C0 12.844 0.210442 12.6336 0.470065 12.6336ZM12.2217 12.6336H21.1529C21.4125 12.6336 21.623 12.844 21.623 13.1036V22.0349C21.623 22.2945 21.4125 22.5049 21.1529 22.5049H12.2217C11.9621 22.5049 11.7516 22.2945 11.7516 22.0349V13.1036C11.7516 12.844 11.9621 12.6336 12.2217 12.6336Z" fill="white"/>
</svg>
