<svg width="20" height="20" viewBox="0 0 20 20" fill="none" xmlns="http://www.w3.org/2000/svg">
<circle cx="10" cy="10" r="10" fill="white"/>
<path d="M15 12.625V6.375C15 5.02 12.7106 3.875 10 3.875C7.28938 3.875 5 5.02 5 6.375V12.625C5 13.98 7.28938 15.125 10 15.125C12.7106 15.125 15 13.98 15 12.625ZM10 5.125C12.3069 5.125 13.7069 6.06687 13.75 6.37125C13.7069 6.68313 12.3069 7.625 10 7.625C7.69312 7.625 6.29312 6.68313 6.25 6.37875C6.29312 6.06688 7.69312 5.125 10 5.125ZM6.25 8.00438C7.17438 8.53375 8.52312 8.875 10 8.875C11.4769 8.875 12.8256 8.53375 13.75 8.00438V9.49625C13.7069 9.80813 12.3069 10.75 10 10.75C7.69312 10.75 6.29312 9.80813 6.25 9.5V8.00438ZM6.25 12.625V11.1294C7.17438 11.6588 8.52312 12 10 12C11.4769 12 12.8256 11.6588 13.75 11.1294V12.6213C13.7069 12.9331 12.3069 13.875 10 13.875C7.69312 13.875 6.29312 12.9331 6.25 12.625Z" fill="#1664FA"/>
</svg>
