<svg width="20" height="20" viewBox="0 0 20 20" fill="none" xmlns="http://www.w3.org/2000/svg">
<path d="M15 1.33988C16.5202 2.21756 17.7826 3.47994 18.6603 5.00014C19.538 6.52033 20 8.24477 20 10.0001C20 11.7555 19.5379 13.4799 18.6602 15.0001C17.7825 16.5203 16.5201 17.7827 14.9999 18.6603C13.4797 19.538 11.7552 20 9.99984 20C8.24446 20 6.52002 19.5379 4.99984 18.6602C3.47965 17.7825 2.21729 16.5201 1.33963 14.9998C0.46198 13.4796 -4.45897e-05 11.7552 3.22765e-09 9.99982L0.00500012 9.67582C0.0610032 7.94882 0.563548 6.26581 1.46364 4.79085C2.36373 3.31589 3.63065 2.09933 5.14089 1.25977C6.65113 0.420202 8.35315 -0.0137107 10.081 0.000330243C11.8089 0.0143712 13.5036 0.475887 15 1.33988ZM10 3.99986C9.73478 3.99986 9.48043 4.10522 9.29289 4.29275C9.10536 4.48029 9 4.73464 9 4.99986C8.20435 4.99986 7.44129 5.31592 6.87868 5.87853C6.31607 6.44113 6 7.20419 6 7.99983C6 8.79548 6.31607 9.55853 6.87868 10.1211C7.44129 10.6837 8.20435 10.9998 9 10.9998V12.9998C8.83416 13.009 8.66858 12.9775 8.51766 12.9082C8.36673 12.8388 8.23503 12.7336 8.134 12.6018L8.066 12.5008C7.92918 12.2802 7.71191 12.1214 7.46014 12.058C7.20836 11.9947 6.94182 12.0317 6.71686 12.1613C6.49191 12.291 6.32619 12.503 6.25474 12.7526C6.18329 13.0022 6.21171 13.2698 6.334 13.4988C6.58924 13.9415 6.95331 14.3116 7.3917 14.5741C7.8301 14.8366 8.32827 14.9828 8.839 14.9988H9C8.99979 15.2439 9.0896 15.4805 9.25238 15.6638C9.41516 15.847 9.63958 15.9641 9.883 15.9928L10 15.9998C10.2652 15.9998 10.5196 15.8944 10.7071 15.7069C10.8946 15.5194 11 15.265 11 14.9998L11.176 14.9948C11.9556 14.9497 12.6869 14.6025 13.2145 14.0268C13.7422 13.4511 14.0245 12.6923 14.0016 11.9118C13.9787 11.1312 13.6523 10.3903 13.0918 9.84659C12.5313 9.30284 11.7809 8.99907 11 8.99983V6.99984C11.358 6.98784 11.671 7.13984 11.866 7.39784L11.934 7.49884C12.0708 7.71948 12.2881 7.87827 12.5399 7.94162C12.7916 8.00498 13.0582 7.96792 13.2831 7.8383C13.5081 7.70869 13.6738 7.49666 13.7453 7.24706C13.8167 6.99747 13.7883 6.72986 13.666 6.50085C13.4109 6.058 13.0469 5.68767 12.6085 5.42498C12.1701 5.16229 11.6718 5.01596 11.161 4.99986H11C11 4.73464 10.8946 4.48029 10.7071 4.29275C10.5196 4.10522 10.2652 3.99986 10 3.99986ZM11 10.9998C11.2652 10.9998 11.5196 11.1052 11.7071 11.2927C11.8946 11.4802 12 11.7346 12 11.9998C12 12.265 11.8946 12.5194 11.7071 12.7069C11.5196 12.8944 11.2652 12.9998 11 12.9998V10.9998ZM9 6.99984V8.99983C8.73478 8.99983 8.48043 8.89447 8.29289 8.70693C8.10536 8.5194 8 8.26505 8 7.99983C8 7.73462 8.10536 7.48027 8.29289 7.29273C8.48043 7.1052 8.73478 6.99984 9 6.99984Z" fill="white"/>
</svg>
