<svg width="14" height="20" viewBox="0 0 14 20" fill="none" xmlns="http://www.w3.org/2000/svg">
<path d="M13.4646 19.5598C13.8074 19.2778 14 18.8954 14 18.4967C14 18.098 13.8074 17.7157 13.4646 17.4337L4.41359 9.99092L13.4646 2.54815C13.7977 2.26457 13.982 1.88476 13.9779 1.49052C13.9737 1.09629 13.7814 0.719168 13.4424 0.44039C13.1033 0.161613 12.6447 0.00348282 12.1653 5.72205e-05C11.6859 -0.00336838 11.224 0.148186 10.8792 0.422075L0.535358 8.92789C0.192568 9.20985 0 9.59222 0 9.99092C0 10.3896 0.192568 10.772 0.535358 11.054L10.8792 19.5598C11.222 19.8416 11.687 20 12.1719 20C12.6567 20 13.1217 19.8416 13.4646 19.5598Z" fill="#2C2C2C"/>
</svg>
